<?xml version="1.0" standalone="no"?>
<!DOCTYPE svg PUBLIC "-//W3C//DTD SVG 1.1//EN" "http://www.w3.org/Graphics/SVG/1.1/DTD/svg11.dtd" >
<svg xmlns="http://www.w3.org/2000/svg">
<metadata>
This is a custom SVG webfont generated by Font Squirrel.
Copyright   : Copyright c 2011 by Vissol Ltd All rights reserved
Designer    : Joe Prince
Foundry     : Joe Prince
</metadata>
<defs>
<font id="webfontOM8fITNz" horiz-adv-x="1529" >
<font-face units-per-em="2048" ascent="1638" descent="-410" />
<missing-glyph horiz-adv-x="692" />
<glyph unicode=" "  horiz-adv-x="692" />
<glyph unicode="&#x09;" horiz-adv-x="692" />
<glyph unicode="&#xa0;" horiz-adv-x="692" />
<glyph unicode="!" horiz-adv-x="761" d="M303 0v164h164v-164h-164zM311 1366h148l-15 -1022h-118z" />
<glyph unicode="&#x22;" horiz-adv-x="780" d="M440 1384h170l-37 -411h-98zM203 973l-37 411h170l-35 -411h-98z" />
<glyph unicode="#" horiz-adv-x="1210" d="M850 1071h125l-43 -242h147v-122h-168l-57 -326h166v-123h-186l-37 -219h-125l37 219h-271l-39 -219h-125l39 219h-168v123h189l55 326h-186v122h209l41 242h125l-41 -242h270zM729 381l57 326h-272l-55 -326h270z" />
<glyph unicode="$" horiz-adv-x="1181" d="M1055 348q0 -156 -105.5 -250t-296.5 -110v-209h-110v205q-207 6 -377 96v160q158 -104 377 -109v520q-76 23 -117 37t-101.5 44t-92 63.5t-55 87t-23.5 121.5q0 143 95 249.5t294 126.5v209h110v-205q166 -8 314 -81v-152q-150 84 -314 86v-469q88 -29 147.5 -55.5 t124 -73.5t97.5 -120t33 -171zM301 1004q0 -78 61.5 -121t180.5 -80v428q-242 -34 -242 -227zM653 135q254 33 254 213q0 106 -65.5 165.5t-188.5 102.5v-481z" />
<glyph unicode="%" horiz-adv-x="1777" d="M442 1360q123 0 209 -83t86 -294q0 -113 -26.5 -190.5t-71.5 -116.5t-93 -55.5t-104 -16.5q-57 0 -104 16.5t-93 55.5t-73 116.5t-27 190.5q0 111 27 189.5t73 116.5t93 54.5t104 16.5zM442 711q84 0 133.5 55t49.5 217t-49.5 216t-133.5 54q-86 0 -135 -54t-49 -216 t50 -217t134 -55zM1384 1366l-858 -1366h-131l858 1366h131zM1339 6q-57 0 -104 16.5t-93 55.5t-73 116.5t-27 190.5t27 190.5t73 116.5t93 55.5t104 16.5q55 0 103.5 -16.5t93.5 -55.5t71.5 -116.5t26.5 -190.5t-26.5 -190.5t-71.5 -116.5t-93.5 -55.5t-103.5 -16.5z M1339 657q-84 0 -134 -55t-50 -217t50 -217t134 -55t133.5 55t49.5 217t-49.5 217t-133.5 55z" />
<glyph unicode="&#x26;" horiz-adv-x="1310" d="M1014 272l227 -272h-192l-125 152q-162 -168 -385 -168q-111 0 -198 38.5t-134 101t-71.5 127t-24.5 126.5q0 119 56 220t220 191q-135 168 -135 283q0 127 91 218t218 91q131 0 221 -87t90 -214q0 -109 -59 -183.5t-192 -152.5l297 -354q57 100 83 205h134 q-33 -177 -121 -322zM565 1233q-70 0 -120 -48t-50 -116q0 -72 129 -213q131 70 171 116t40 105q0 68 -49 112t-121 44zM545 127q172 0 291 129l-357 428q-78 -41 -128 -85t-68.5 -87t-22.5 -67.5t-4 -63.5q0 -33 12.5 -71t42 -82t90 -72.5t144.5 -28.5z" />
<glyph unicode="'" horiz-adv-x="509" d="M203 973l-37 411h170l-35 -411h-98z" />
<glyph unicode="(" horiz-adv-x="706" d="M418 1483h155q-29 -47 -59.5 -112.5t-74.5 -180.5t-72.5 -264.5t-28.5 -300.5q0 -150 28.5 -300.5t72.5 -264t76 -180t58 -111.5h-155q-227 408 -228 856q1 450 228 858z" />
<glyph unicode=")" horiz-adv-x="706" d="M291 1483q227 -408 227 -856q0 -451 -227 -858h-158q29 47 59.5 111.5t75.5 180t74 265t29 301.5q0 195 -53.5 396.5t-98.5 296.5t-86 163h158z" />
<glyph unicode="*" horiz-adv-x="841" d="M666 1270l-177 -80l177 -78l-56 -98l-153 112l16 -184h-111l21 184l-156 -112l-55 98l178 78l-178 80l55 94l156 -111l-21 187h111l-16 -187l153 111z" />
<glyph unicode="+" horiz-adv-x="1128" d="M926 674v-123h-301v-301h-123v301h-303v123h303v303h123v-303h301z" />
<glyph unicode="," horiz-adv-x="641" d="M303 172h168l-172 -401h-147z" />
<glyph unicode="-" horiz-adv-x="950" d="M786 682v-143h-624v143h624z" />
<glyph unicode="." horiz-adv-x="671" d="M260 0v164h164v-164h-164z" />
<glyph unicode="/" horiz-adv-x="827" d="M723 1548h135l-754 -1749h-133z" />
<glyph unicode="0" horiz-adv-x="1345" d="M671.5 1378q538.5 0 538.5 -700.5t-538.5 -700.5t-538.5 700.5t538.5 700.5zM671.5 113q61.5 0 110.5 10t104.5 45t92.5 94.5t60.5 164.5t23.5 251q0 178 -34 298t-95.5 174t-121.5 73.5t-140 19.5t-140.5 -19.5t-122 -73.5t-95 -174t-33.5 -298q0 -145 23.5 -250.5 t60 -165t92 -94.5t104.5 -45t110.5 -10z" />
<glyph unicode="1" horiz-adv-x="923" d="M463 1366h168v-1366h-148v1212l-272 -180v174z" />
<glyph unicode="2" horiz-adv-x="1189" d="M401 147h619v-147h-862v129q102 76 208.5 169t223.5 215t189.5 252t72.5 234q0 238 -322 238q-190 0 -358 -119v162q172 104 371 104q233 0 344.5 -112.5t111.5 -272.5q0 -111 -56 -232.5t-151.5 -236t-190 -206t-200.5 -177.5z" />
<glyph unicode="3" horiz-adv-x="1193" d="M788 739q10 -4 26.5 -12t58.5 -39t75 -67.5t59.5 -99t26.5 -132.5q0 -78 -27.5 -147.5t-84 -129t-157.5 -94t-235 -34.5q-197 0 -364 86v151q160 -90 346 -90q182 0 278.5 67.5t96.5 194.5t-98.5 194.5t-284.5 67.5h-150v142h156q150 0 228.5 56t78.5 162.5t-83 164 t-240 57.5q-152 0 -295 -72v150q147 70 311 69q233 0 344 -108.5t111 -259.5q0 -172 -148 -260z" />
<glyph unicode="4" horiz-adv-x="1210" d="M889 547h194v-137h-194v-410h-148v410h-663v157l645 799h166v-819zM242 547h499v608z" />
<glyph unicode="5" horiz-adv-x="1202" d="M248 1366h702v-145h-575l-39 -406q121 37 266 37q84 0 153.5 -18.5t136 -63.5t105.5 -135t39 -217t-39 -217t-105.5 -135.5t-136 -63.5t-153.5 -18q-236 0 -391 84v153q150 -94 381 -94q80 0 138 19.5t89 46t47.5 69.5t20.5 77t4 79q0 92 -24.5 152.5t-71.5 88t-93.5 37 t-109.5 9.5q-96 0 -177 -16.5t-112 -33.5l-33 -14l-92 94z" />
<glyph unicode="6" horiz-adv-x="1193" d="M598 874q215 0 340 -115.5t125 -314.5q0 -84 -25.5 -162.5t-78 -147t-145.5 -109.5t-216 -41q-465 0 -465 641q0 141 25.5 257.5t65.5 193.5t96.5 135.5t111.5 90t118.5 51t111 25.5t94.5 6q109 0 198 -26v-137q-102 25 -182 24q-47 0 -92 -6t-113.5 -32.5t-122 -73 t-97.5 -136.5t-58 -213q133 90 309 90zM598 123q102 0 172 38t98.5 98t37.5 103.5t9 83.5q0 139 -81.5 215t-235.5 76q-201 0 -317 -116q2 -141 27.5 -241.5t57 -149t83 -75t79 -29.5t70.5 -3z" />
<glyph unicode="7" horiz-adv-x="1175" d="M143 1366h932v-137l-592 -1229h-164l596 1219h-772v147z" />
<glyph unicode="8" horiz-adv-x="1191" d="M842 739q10 -4 25.5 -11t54.5 -34.5t69.5 -62.5t55 -95.5t24.5 -129.5q0 -78 -25.5 -149t-79 -134.5t-148.5 -101t-220 -37.5q-240 0 -356.5 127t-116.5 295q0 203 184 307l51 24l-20 11q-12 6 -44 30.5t-56.5 55t-44 84t-19.5 112.5q0 145 103.5 249.5t318.5 104.5 t318.5 -103t103.5 -251q0 -184 -148 -274zM324 1030q0 -111 72.5 -173t201.5 -62t201.5 62.5t72.5 172.5q0 209 -274 209t-274 -209zM598 123q86 0 149.5 23.5t96.5 56.5t52 76t23.5 71.5t4.5 55.5q0 123 -84 188t-242 65t-242 -65.5t-84 -187.5q0 -27 4.5 -55.5t23.5 -71.5 t52 -76t96.5 -56.5t149.5 -23.5z" />
<glyph unicode="9" horiz-adv-x="1202" d="M584 494q-215 0 -340 115.5t-125 314.5q0 84 25.5 162.5t77.5 147.5t145.5 109.5t216.5 40.5q465 0 465 -643q0 -195 -48.5 -340t-116 -223t-160.5 -124t-160.5 -58t-137.5 -12q-104 0 -199 24v139q84 -25 183 -24q47 0 92 6t113.5 32.5t120.5 73t97.5 136.5t57.5 213 q-121 -90 -307 -90zM584 1245q-102 0 -172 -38t-98.5 -98t-38 -103t-9.5 -84q0 -139 82 -215t236 -76q207 0 317 117q-2 141 -27.5 241.5t-57.5 148.5t-83 74.5t-78.5 29.5t-70.5 3z" />
<glyph unicode=":" horiz-adv-x="800" d="M324 98v164h163v-164h-163zM324 754v164h163v-164h-163z" />
<glyph unicode=";" horiz-adv-x="854" d="M352 754v164h164v-164h-164zM350 172h168l-172 -401h-147z" />
<glyph unicode="&#x3c;" horiz-adv-x="1351" d="M246 621l844 383v-164l-672 -289l672 -291v-162l-844 383v140z" />
<glyph unicode="=" horiz-adv-x="1306" d="M1049 524v-143h-789v143h789zM1049 840v-142h-789v142h789z" />
<glyph unicode="&#x3e;" horiz-adv-x="1329" d="M1112 621v-140l-842 -383v162l670 291l-670 289v164z" />
<glyph unicode="?" horiz-adv-x="993" d="M391 0v164h164v-164h-164zM449 1382q61 0 120.5 -14t129 -50t112.5 -117t43 -197q0 -82 -31.5 -142.5t-77.5 -98.5l-90 -76q-45 -38 -76.5 -101.5t-31.5 -151.5v-90h-148v100q0 104 32 181t77 120t90 78t77 79t32 102q0 231 -269 231q-156 0 -274 -90v160q113 77 285 77z " />
<glyph unicode="@" horiz-adv-x="1869" d="M1040 596q74 0 152 -10q2 14 2 43q0 35 -6 59.5t-23.5 50t-60.5 39t-109 13.5q-143 0 -256 -43l17 118q123 41 239 41q156 0 237 -70.5t81 -207.5q0 -59 -11.5 -142.5t-17.5 -137.5t-4 -107.5t30.5 -79t86.5 -25.5q90 0 169 114t79 312q0 145 -55.5 262t-144.5 186.5 t-191.5 106.5t-206.5 37q-311 0 -554 -230.5t-243 -553.5q0 -154 51 -270.5t123 -177t163 -98.5t153.5 -47t113.5 -9q254 0 430 100l-18 -92q-172 -82 -428 -82q-86 0 -174.5 22.5t-178.5 74.5t-158.5 127t-112.5 192.5t-44 259.5q0 244 133 445.5t334 309t410 107.5 q82 0 171 -21.5t180 -73t162.5 -126t116.5 -189t45 -254.5q0 -221 -91 -362t-242 -141q-137 0 -191 100q-96 -100 -295 -100q-143 0 -225 62t-82 171q0 49 16.5 94t59.5 94.5t138 79t230 29.5zM903 184q49 0 88 8.5t65.5 17.5t47 31.5t31 37t18.5 46t11 46t6.5 51.5t5.5 47 q-55 8 -136 8q-326 0 -325 -178q0 -115 188 -115z" />
<glyph unicode="A" horiz-adv-x="1325" d="M735 1366l543 -1366h-158l-164 426h-589l-164 -426h-160l545 1366h147zM422 567h479l-239 625z" />
<glyph unicode="B" horiz-adv-x="1271" d="M940 727q10 -2 24.5 -8t54.5 -33t69.5 -61.5t54 -98t24.5 -139.5q0 -387 -495 -387h-494v1366h453q455 0 454 -367q0 -55 -15 -104t-36.5 -78t-42 -50.5t-37.5 -29.5zM684 137q156 0 246 54.5t90 203.5q0 63 -21.5 108.5t-52.5 71t-80 39t-91 17.5t-97 4h-352v-498h358z M938 989q0 133 -72.5 184.5t-220.5 51.5h-319v-451h338q125 0 199.5 43t74.5 172z" />
<glyph unicode="C" horiz-adv-x="1286" d="M272 684q0 -291 121 -426t381 -135q209 0 400 80v-142q-199 -78 -416 -77q-633 0 -633 700t633 700q219 0 416 -79v-142q-195 82 -400 82q-260 0 -381 -135t-121 -426z" />
<glyph unicode="D" horiz-adv-x="1372" d="M178 1366h428q641 0 641 -682q0 -684 -641 -684h-428v1366zM596 139q262 0 383 131t121 414t-121 414t-383 131h-270v-1090h270z" />
<glyph unicode="E" horiz-adv-x="1159" d="M326 1227v-471h628v-144h-628v-473h714v-139h-862v1366h862v-139h-714z" />
<glyph unicode="F" horiz-adv-x="1097" d="M178 1366h838v-139h-690v-471h606v-144h-606v-612h-148v1366z" />
<glyph unicode="G" horiz-adv-x="1386" d="M758 600v143h477v-653q-221 -106 -477 -106q-633 0 -633 700t633 700q227 0 430 -86v-143q-199 88 -414 88q-260 0 -381 -135t-121 -424q0 -291 121 -425t381 -134q164 0 313 49v426h-329z" />
<glyph unicode="H" horiz-adv-x="1380" d="M1053 1366h147v-1366h-147v612h-727v-612h-148v1366h148v-612h727v612z" />
<glyph unicode="I" horiz-adv-x="501" d="M178 1366h148v-1366h-148v1366z" />
<glyph unicode="J" horiz-adv-x="915" d="M573 1366h148v-958q0 -125 -35 -213.5t-95.5 -131.5t-124 -61t-136.5 -18q-147 0 -271 71v154q117 -82 252 -82q139 0 200.5 68.5t61.5 224.5v946z" />
<glyph unicode="K" horiz-adv-x="1294" d="M571 727l633 -727h-194l-535 623l-149 -164v-459h-148v1366h148v-704l632 704h199z" />
<glyph unicode="L" horiz-adv-x="1067" d="M326 143h698v-143h-846v1366h148v-1223z" />
<glyph unicode="M" horiz-adv-x="1619" d="M1278 1366h160v-1366h-148v1124l-483 -696l-481 696v-1124h-148v1366h160l469 -694z" />
<glyph unicode="N" horiz-adv-x="1490" d="M1161 1366h148v-1366h-166l-817 1151v-1151h-148v1366h168l815 -1151v1151z" />
<glyph unicode="O" d="M758 1384q635 0 635 -700t-635 -700q-633 0 -633 700t633 700zM758 123q254 0 370.5 135t116.5 426t-116.5 426t-370.5 135q-252 0 -369 -135t-117 -426t117 -426t369 -135z" />
<glyph unicode="P" horiz-adv-x="1220" d="M662 1366q229 0 351 -108.5t122 -313.5t-122 -313.5t-351 -108.5h-338v-522h-148v1366h486zM643 664q109 0 181.5 23.5t105.5 68.5t45 88t12 100t-12 100t-45 88.5t-105.5 69t-181.5 23.5h-319v-561h319z" />
<glyph unicode="Q" d="M1393 684q0 -651 -553 -698q41 -170 268 -176v-134q-113 0 -196 30t-127 81t-65.5 98t-29.5 101q-565 37 -565 698q0 700 633 700q635 0 635 -700zM758 123q254 0 370.5 135t116.5 426t-116.5 426t-370.5 135q-252 0 -369 -135t-117 -426t117 -426t369 -135z" />
<glyph unicode="R" horiz-adv-x="1271" d="M829 573l375 -573h-174l-356 551h-348v-551h-148v1366h502q223 0 343 -101.5t120 -295.5q0 -88 -28 -160t-63.5 -112t-84.5 -69.5t-80 -39t-58 -15.5zM672 690q102 0 170.5 23.5t99.5 65.5t42 83t11 96.5t-11 96.5t-42 83t-99.5 65.5t-170.5 23.5h-346v-537h346z" />
<glyph unicode="S" horiz-adv-x="1150" d="M272 1004q0 -70 56.5 -117t139.5 -69.5t181.5 -57.5t181 -76t139 -127t56.5 -209q0 -170 -128 -267t-357 -97q-223 0 -404 96v160q162 -109 393 -109q348 0 349 217q0 92 -56.5 154.5t-139.5 91.5l-181 60q-98 32 -181 65t-139.5 105.5t-56.5 179.5q0 158 114.5 269 t356.5 111q174 0 342 -81v-152q-152 86 -328 86q-164 0 -251 -60t-87 -173z" />
<glyph unicode="T" horiz-adv-x="1163" d="M25 1366h1112v-143h-482v-1223h-147v1223h-483v143z" />
<glyph unicode="U" horiz-adv-x="1476" d="M1141 1366h147v-805q0 -281 -143.5 -429t-411.5 -148t-411.5 148.5t-143.5 428.5v805h148v-813q0 -434 407.5 -434t407.5 434v813z" />
<glyph unicode="V" horiz-adv-x="1251" d="M1061 1366h158l-525 -1366h-145l-524 1366h157l441 -1155z" />
<glyph unicode="W" horiz-adv-x="1947" d="M1765 1366h156l-440 -1366h-150l-358 1114l-359 -1114h-151l-438 1366h155l359 -1143l360 1143h148l358 -1143z" />
<glyph unicode="X" horiz-adv-x="1206" d="M690 690l484 -690h-177l-397 563l-395 -563h-180l485 692l-473 674h176l387 -549l385 549h180z" />
<glyph unicode="Y" horiz-adv-x="1224" d="M1012 1366h178l-508 -739v-627h-147v627l-510 739h178l405 -596z" />
<glyph unicode="Z" horiz-adv-x="1247" d="M1104 1366v-125l-785 -1094h785v-147h-973v129l780 1090h-759v147h952z" />
<glyph unicode="[" horiz-adv-x="784" d="M391 1286v-1384h223v-140h-370v1663h370v-139h-223z" />
<glyph unicode="\" horiz-adv-x="753" d="M59 1548l752 -1749h-133l-754 1749h135z" />
<glyph unicode="]" horiz-adv-x="780" d="M393 1286h-221v139h369v-1663h-369v140h221v1384z" />
<glyph unicode="^" horiz-adv-x="1146" d="M600 1413l213 -444h-123l-145 325l-148 -325h-123l213 444h113z" />
<glyph unicode="_" horiz-adv-x="1118" d="M0 -49h1118v-90h-1118v90z" />
<glyph unicode="`" horiz-adv-x="448" d="M244 1391l116 -236h-96l-170 236h150z" />
<glyph unicode="a" horiz-adv-x="1093" d="M522 1040q215 0 328 -108.5t113 -317.5v-307q0 -98 -45.5 -167.5t-117 -100.5t-134 -43t-123.5 -12q-47 0 -96.5 6t-112 27.5t-108.5 55t-78.5 96t-32.5 144.5q0 70 25.5 125.5t62.5 90t94 59t101 36t104.5 17.5t86 7t60.5 1l164 -10q0 137 -75.5 195.5t-223.5 58.5 q-166 0 -299 -49v143q151 53 307 53zM815 307v197q-68 12 -182 12q-371 0 -371 -203q0 -193 281 -192q272 0 272 186z" />
<glyph unicode="b" horiz-adv-x="1167" d="M569 1040q70 0 131.5 -12t125 -47t109.5 -90t74.5 -149.5t28.5 -217.5q0 -135 -31.5 -236.5t-77.5 -157.5t-110.5 -91t-119 -45t-111.5 -10q-111 0 -193 27.5t-123 63.5t-66.5 86t-30.5 82.5t-5 63.5v1106h147v-414q123 41 252 41zM588 119q57 0 103 13t95.5 51t77 125 t27.5 216q0 199 -76 289t-246 90q-127 0 -252 -51v-553q1 -180 271 -180z" />
<glyph unicode="c" horiz-adv-x="966" d="M266 512q0 -205 83 -296t265 -91q154 0 287 57v-143q-143 -55 -303 -55q-72 0 -134.5 12t-128 48t-111.5 92.5t-75.5 152.5t-29.5 223q0 156 43 265.5t116.5 163.5t150.5 76.5t169 22.5q154 0 303 -57v-141q-139 57 -287 57q-182 0 -265 -92t-83 -295z" />
<glyph unicode="d" horiz-adv-x="1150" d="M129 524q0 152 41 258.5t113.5 159.5t147.5 74.5t165 21.5q135 0 254 -39v412h147v-1106q0 -41 -12 -84t-50 -102.5t-130 -97t-227 -37.5q-57 0 -111.5 10t-118 45t-109.5 91t-78 157.5t-32 236.5zM276 524q0 -129 28 -216t77 -125t94 -51t103 -13q272 0 272 180v553 q-125 51 -254 51q-168 0 -244 -90t-76 -289z" />
<glyph unicode="e" horiz-adv-x="1136" d="M578 1040q94 0 170.5 -29.5t121.5 -69.5t79 -104.5t48.5 -109.5t22.5 -108.5t8 -78.5v-44l-4 -72h-745q14 -154 94 -223.5t237 -69.5q223 0 351 76v-152q-150 -72 -365 -71q-90 0 -165 21.5t-147.5 74.5t-113.5 159.5t-41 258.5v7.5v7.5q0 527 449 527zM279 555h598 q0 35 -8.5 78t-34 110.5t-92 112.5t-164.5 45q-152 0 -220.5 -79t-78.5 -267z" />
<glyph unicode="f" horiz-adv-x="675" d="M612 1317q-49 0 -74.5 -4t-61.5 -24.5t-53 -73t-17 -136.5v-57h280v-135h-280v-887h-148v887h-176v135h176v55q0 106 27.5 182t62.5 112t89.5 56.5t83 22.5t67.5 2q55 0 98 -12v-131q-41 8 -74 8z" />
<glyph unicode="g" horiz-adv-x="1101" d="M557 1040q131 0 220 -36.5t125 -94t48.5 -99.5t12.5 -83v-770q0 -68 -19.5 -125t-64.5 -111.5t-137.5 -85t-223.5 -30.5q-143 0 -291 37v139q131 -37 275 -37q98 0 164.5 17.5t96.5 50t41 64.5t11 77v102q-115 -37 -240 -37q-68 0 -127 11.5t-120.5 45.5t-105.5 88 t-71.5 144t-27.5 209q0 160 43 271.5t115.5 162.5t138 70.5t137.5 19.5zM815 203v530q0 172 -258 172q-55 0 -98 -13t-90 -50t-73 -120t-26 -206q0 -115 24.5 -189.5t72 -110.5t95.5 -48t113 -12q123 0 240 47z" />
<glyph unicode="h" horiz-adv-x="1181" d="M649 1040q188 0 290.5 -113.5t102.5 -320.5v-606h-147v606q0 287 -262 287q-143 0 -293 -62v-831h-147v1411h147v-436q155 65 309 65z" />
<glyph unicode="i" horiz-adv-x="540" d="M348 0v1022h-147v-1022h147zM356 1366v-162h-163v162h163z" />
<glyph unicode="j" horiz-adv-x="514" d="M207 1366h164v-162h-164v162zM215 1022h147v-1081q0 -336 -356 -336v137q127 2 168 50t41 157v1073z" />
<glyph unicode="k" horiz-adv-x="1124" d="M559 553l492 -553h-197l-391 449l-127 -138v-311h-148v1411h148v-891l459 502h200z" />
<glyph unicode="l" horiz-adv-x="552" d="M354 0h-147v1411h147v-1411z" />
<glyph unicode="m" horiz-adv-x="1824" d="M1251 1040q186 0 288.5 -98t102.5 -276v-666h-147v666q0 43 -8 76.5t-32.5 71.5t-79 58.5t-134.5 20.5q-129 0 -283 -51q33 -74 33 -176v-666h-147v666q0 45 -8.5 78.5t-33 70.5t-80.5 57.5t-138 20.5q-125 0 -244 -37v-856h-147v942q197 98 409 98q168 0 270 -84 q197 84 379 84z" />
<glyph unicode="n" horiz-adv-x="1189" d="M600 1040q193 0 299.5 -98t106.5 -276v-666h-148v666q0 43 -9 76.5t-35 71.5t-84 58.5t-146 20.5q-129 0 -269 -41v-852h-147v940q201 100 432 100z" />
<glyph unicode="o" horiz-adv-x="1155" d="M579.5 1040q92.5 0 170 -22.5t151.5 -76.5t117 -163.5t43 -265.5t-43 -265.5t-117 -163.5t-151.5 -76.5t-170 -22.5t-169 22.5t-150.5 76.5t-117 163.5t-43 265.5t43 265.5t117 163.5t150.5 76.5t169 22.5zM580 119q174 0 253.5 93t79.5 300t-79.5 300t-253.5 93 t-253 -94t-79 -299t79 -299t253 -94z" />
<glyph unicode="p" horiz-adv-x="1159" d="M588 1040q57 0 111.5 -10t118 -45t109.5 -92t77.5 -158.5t31.5 -236.5q0 -152 -41 -258.5t-113.5 -159.5t-147.5 -74.5t-165 -21.5q-125 0 -254 39v-402h-147v1096q0 41 12.5 84t50 103.5t130 98t227.5 37.5zM569 121q168 0 244 89t76 290q0 129 -27.5 215t-77 125 t-94.5 52t-102 13q-272 0 -273 -182v-551q117 -51 254 -51z" />
<glyph unicode="q" horiz-adv-x="1150" d="M115 498q0 135 31.5 236.5t77.5 158.5t109.5 92t118 45t111.5 10q111 0 193 -27.5t123 -63.5t66.5 -86t30.5 -82.5t5 -63.5v-1096h-147v402q-117 -39 -252 -39q-90 0 -165 21.5t-147.5 74.5t-113.5 159.5t-41 258.5zM262 500q0 -201 76 -290t244 -89q135 0 252 51v551 q0 182 -271 182q-57 0 -102 -13t-94.5 -52t-77 -125t-27.5 -215z" />
<glyph unicode="r" horiz-adv-x="702" d="M662 897q-168 -4 -349 -53v-844h-147v940q231 98 496 98v-141z" />
<glyph unicode="s" horiz-adv-x="872" d="M248 743q0 -53 56 -85.5t137 -54t162 -51.5t137.5 -101.5t56.5 -182.5q0 -133 -99.5 -208.5t-275.5 -75.5q-170 0 -309 77v156q147 -90 303 -90q233 0 233 141q0 76 -56 119t-137 64.5t-162 47t-137.5 86t-56.5 158.5q0 123 89.5 210t273.5 87q131 0 262 -63v-148 q-117 70 -246 70q-231 0 -231 -156z" />
<glyph unicode="t" horiz-adv-x="706" d="M375 887v-623q0 -78 32.5 -109.5t114.5 -31.5q63 0 117 24v-139q-68 -25 -135 -24q-41 0 -80 9t-88 35.5t-79 89t-30 154.5v615h-178v135h178v289h148v-289h264v-135h-264z" />
<glyph unicode="u" horiz-adv-x="1202" d="M877 1022h147v-592q0 -213 -111.5 -329.5t-316.5 -116.5t-316.5 116.5t-111.5 329.5v592h147v-600q0 -156 68 -228.5t213 -72.5q143 0 212 72.5t69 228.5v600z" />
<glyph unicode="v" horiz-adv-x="1062" d="M842 1022h157l-393 -1022h-149l-391 1022h157l309 -838z" />
<glyph unicode="w" horiz-adv-x="1603" d="M1368 1022h156l-340 -1022h-150l-233 764l-234 -764h-149l-340 1022h155l261 -791l235 791h141l238 -791z" />
<glyph unicode="x" horiz-adv-x="1032" d="M600 514l363 -514h-177l-274 389l-274 -389h-181l365 518l-354 504h174l268 -379l268 379h180l-356 -504z" />
<glyph unicode="y" horiz-adv-x="1028" d="M807 1022h158l-418 -1122q-109 -295 -322 -295q-49 0 -96 18v135q41 -18 88 -18q39 0 77 28.5t62.5 68.5t45 81t28.5 70l10 28l-377 1006h158l291 -809z" />
<glyph unicode="z" horiz-adv-x="950" d="M840 1022v-129l-561 -752h561v-141h-748v133l557 748h-543v141h734z" />
<glyph unicode="{" horiz-adv-x="763" d="M463 72q0 -88 39 -122t121 -38v-137q-150 0 -229 78.5t-79 228.5v319q0 111 -129 150v100q129 33 129 148v319q0 150 79 229.5t229 79.5v-139q-82 -4 -121 -36.5t-39 -123.5v-329q0 -119 -119 -199q119 -80 119 -199v-329z" />
<glyph unicode="|" horiz-adv-x="907" d="M526 -203h-147v1565h147v-1565z" />
<glyph unicode="}" horiz-adv-x="753" d="M315 72v329q0 117 121 199q-121 82 -121 199v329q0 90 -37.5 123t-121.5 37v139q150 0 228.5 -79.5t78.5 -229.5v-319q0 -115 129 -148v-100q-129 -39 -129 -150v-319q0 -150 -79 -228.5t-228 -78.5v137q82 4 120.5 38t38.5 122z" />
<glyph unicode="~" horiz-adv-x="1024" d="M823 639v-123q-57 -72 -122.5 -79t-127.5 26l-122 64q-61 32 -127 25t-123 -79v125q57 72 122.5 79t127.5 -26l122 -65q61 -33 127 -26t123 79z" />
<glyph unicode="&#xa1;" horiz-adv-x="741" d="M467 1022v-162h-164v162h164zM459 -344h-148l15 1022h118z" />
<glyph unicode="&#xa2;" horiz-adv-x="976" d="M897 1014q-125 51 -266 55v-772q143 4 266 57v-143q-125 -49 -266 -55v-156h-103v158q-412 41 -411 526q0 268 116.5 388t294.5 136v158h103v-156q131 -2 266 -55v-141zM264 684q0 -178 63.5 -270t200.5 -111v762q-137 -20 -200.5 -111.5t-63.5 -269.5z" />
<glyph unicode="&#xa3;" horiz-adv-x="1136" d="M727 1243q-299 0 -299 -233v-299h412v-136h-412v-415q51 -6 145.5 -25.5t154.5 -30t143 -7.5t153 30v-150q-100 -39 -229 -29.5t-230.5 38t-229.5 31.5t-231 -48v150q80 39 177 45v411h-177v136h177v293q0 158 105.5 269t328.5 111q162 0 309 -79v-150q-139 88 -297 88z " />
<glyph unicode="&#xa5;" horiz-adv-x="1232" d="M1204 1366l-444 -645h256v-123h-322v-192h322v-123h-322v-283h-147v283h-322v123h322v192h-322v123h256l-444 645h180l404 -588l403 588h180z" />
<glyph unicode="&#xa7;" horiz-adv-x="1112" d="M1008 629q0 -76 -51.5 -130.5t-125.5 -78.5q72 -59 72 -158q0 -131 -111.5 -204.5t-310.5 -73.5q-203 0 -350 73v152q135 -84 340 -84q285 0 285 137q0 61 -48.5 102.5t-218.5 79.5q-184 43 -277 101.5t-93 181.5q0 164 186 223q-82 51 -82 144q0 119 100.5 204.5 t309.5 85.5q156 0 297 -61v-145q-131 70 -285 69q-274 0 -274 -153q0 -25 8 -40.5t68.5 -44t179.5 -55.5q84 -18 140 -38.5t116.5 -56.5t92.5 -94t32 -136zM743 514q117 35 117 115q0 61 -49 102t-217 80q-98 23 -176 49q-152 -29 -152 -133q0 -25 8.5 -40t70 -44t179.5 -55 q135 -29 219 -74z" />
<glyph unicode="&#xa8;" horiz-adv-x="788" d="M162 1155v162h162v-162h-162zM465 1155v162h162v-162h-162z" />
<glyph unicode="&#xa9;" horiz-adv-x="1593" d="M799 -16q-289 0 -495 204.5t-206 493.5q0 291 206 495.5t495 204.5q291 0 495.5 -204.5t204.5 -495.5q0 -289 -204.5 -493.5t-495.5 -204.5zM799 1311q-258 0 -442.5 -184.5t-184.5 -444.5q0 -258 184.5 -442.5t442.5 -184.5q260 0 443 184.5t183 442.5q0 260 -183 444.5 t-443 184.5zM535 682q0 -170 70.5 -249t221.5 -79q121 0 234 47v-82q-115 -45 -244 -45q-369 0 -368 408q0 410 368 410q129 0 244 -45v-82q-109 45 -234 45q-152 0 -222 -79t-70 -249z" />
<glyph unicode="&#xaa;" horiz-adv-x="806" d="M381 1382q246 0 246 -235v-172q0 -72 -46 -115t-92.5 -53t-95.5 -10t-96 10t-94 54t-47 118q0 186 297 186l92 -6q0 143 -168 144q-92 0 -164 -29v80q72 28 168 28zM545 977v108q-37 6 -101 7q-207 0 -206 -111q0 -109 155 -109q152 1 152 105z" />
<glyph unicode="&#xab;" horiz-adv-x="1132" d="M608 911l-364 -389l364 -391h-198l-347 391l347 389h198zM997 911l-364 -389l364 -391h-198l-346 391l346 389h198z" />
<glyph unicode="&#xac;" horiz-adv-x="1273" d="M199 664h876v-340h-135v204h-741v136z" />
<glyph unicode="&#xad;" horiz-adv-x="950" d="M786 682v-143h-624v143h624z" />
<glyph unicode="&#xae;" horiz-adv-x="1593" d="M926 618l219 -335h-103l-206 323h-205v-323h-86v798h293q131 0 201.5 -58t70.5 -173q0 -63 -22.5 -111.5t-57.5 -72t-58 -33t-46 -15.5zM834 688q113 0 150.5 43t37.5 112.5t-38 112.5t-150 43h-203v-311h203zM799 -16q-289 0 -495 204.5t-206 493.5q0 291 206 495.5 t495 204.5q291 0 495.5 -204.5t204.5 -495.5q0 -289 -204.5 -493.5t-495.5 -204.5zM799 1311q-258 0 -442.5 -184.5t-184.5 -444.5q0 -258 184.5 -442.5t442.5 -184.5q260 0 443 184.5t183 442.5q0 260 -183 444.5t-443 184.5z" />
<glyph unicode="&#xaf;" horiz-adv-x="825" d="M176 1180v108h479v-108h-479z" />
<glyph unicode="&#xb0;" horiz-adv-x="792" d="M391 1370q109 0 166 -58.5t57 -168.5q0 -227 -223 -227.5t-223 227t223 227.5zM391 989q78 0 114 36t36 118q0 80 -36 116.5t-114 36.5q-80 0 -114.5 -36.5t-34.5 -116.5q0 -82 34.5 -118t114.5 -36z" />
<glyph unicode="&#xb1;" horiz-adv-x="1198" d="M657 721h301v-123h-301v-303h-122v303h-304v123h304v301h122v-301zM231 68v122h727v-122h-727z" />
<glyph unicode="&#xb2;" horiz-adv-x="671" d="M240 1028h331v-80h-462v70q133 98 252.5 230t119.5 239q0 125 -172 125q-106 0 -192 -62v86q90 55 198 56q125 0 185.5 -60.5t60.5 -144.5q1 -197 -321 -459z" />
<glyph unicode="&#xb3;" horiz-adv-x="661" d="M444 1346q6 -2 14.5 -6.5t31 -20.5t40 -36.5t31.5 -54.5t14 -71q0 -90 -66.5 -153.5t-203.5 -63.5q-102 0 -196 45v82q90 -49 186 -49q203 0 203 141t-207 141h-80v76h84q164 0 164 119q0 117 -174 117q-88 0 -158 -37v80q82 37 168 37q125 0 184.5 -58.5t59.5 -138.5 q0 -49 -23.5 -86t-48.5 -49z" />
<glyph unicode="&#xb4;" horiz-adv-x="483" d="M240 1391h151l-170 -236h-98z" />
<glyph unicode="&#xb5;" horiz-adv-x="1247" d="M891 1022h147v-938q-193 -100 -430 -100q-152 2 -258 82v-496h-147v1452h147v-664q0 -45 9.5 -78.5t35 -70.5t83 -57.5t145.5 -20.5q135 0 268 39v852z" />
<glyph unicode="&#xb6;" horiz-adv-x="911" d="M549 1366h203v-1366h-136v524h-67q-229 0 -350 108.5t-121 313.5q0 203 121 311.5t350 108.5z" />
<glyph unicode="&#xb7;" horiz-adv-x="636" d="M399 639v-164h-161v164h161z" />
<glyph unicode="&#xb8;" horiz-adv-x="518" d="M399 -10l-129 -236h-155l168 236h116z" />
<glyph unicode="&#xb9;" horiz-adv-x="491" d="M244 1683h90v-735h-78v651l-147 -96v94z" />
<glyph unicode="&#xba;" horiz-adv-x="854" d="M422 1384q266 0 266 -294q0 -293 -266 -293q-113 0 -189.5 64.5t-76.5 228.5q0 86 23.5 147t64.5 92t84 43t94 12zM422 872q98 0 141 51.5t43 166t-43 167t-141 52.5q-96 0 -140 -52.5t-44 -167t44 -166t140 -51.5z" />
<glyph unicode="&#xbb;" horiz-adv-x="1132" d="M526 911h197l348 -389l-348 -391h-197l363 391zM137 911h197l348 -389l-348 -391h-197l363 391z" />
<glyph unicode="&#xbc;" horiz-adv-x="1433" d="M1225 295h104v-74h-104v-221h-80v221h-357v84l347 428h90v-438zM877 295h268v326zM240 1380h92v-733h-80v651l-146 -98v94zM1042 1403h97l-895 -1448h-97z" />
<glyph unicode="&#xbd;" horiz-adv-x="1460" d="M240 1380h92v-733h-80v651l-146 -98v94zM999 80h332v-80h-461v70q133 98 252 229t119 238q0 127 -172 127q-104 0 -192 -64v88q98 55 198 55q127 0 186.5 -60t59.5 -146q0 -195 -322 -457zM1042 1403h97l-895 -1448h-97z" />
<glyph unicode="&#xbe;" horiz-adv-x="1654" d="M471 1042q6 -2 14.5 -6t31 -20.5t39.5 -35.5t31.5 -53t14.5 -71q0 -90 -65.5 -154.5t-204.5 -64.5q-98 0 -197 47v80q94 -47 189 -47q201 0 200 141q0 68 -53 104.5t-154 36.5h-79v74h84q164 0 163.5 119t-174.5 119q-84 0 -157 -39v82q82 37 168 37q125 0 184 -58.5 t59 -140.5q0 -49 -23.5 -86t-45.5 -49zM1446 295h104v-74h-104v-221h-80v221h-356v84l346 428h90v-438zM1098 295h268v326zM1264 1403h96l-895 -1448h-96z" />
<glyph unicode="&#xbf;" horiz-adv-x="989" d="M610 1022v-162h-164v162h164zM553 -360q-47 0 -93 7t-105.5 31.5t-102.5 64.5t-74 111.5t-31 165.5q0 82 32 141.5t77 97.5l90 76q45 38 77 101.5t32 151.5v92h147v-102q0 -104 -31.5 -181.5t-76.5 -119t-90.5 -77.5t-77 -80t-31.5 -100q0 -233 270 -233q141 0 275 90 v-160q-115 -77 -287 -77z" />
<glyph unicode="&#xc0;" horiz-adv-x="1325" d="M735 1366l543 -1366h-158l-164 426h-589l-164 -426h-160l545 1366h147zM422 567h479l-239 625zM590 1718l117 -235h-99l-170 235h152z" />
<glyph unicode="&#xc1;" horiz-adv-x="1325" d="M43 0l545 1366h147l543 -1366h-158l-164 426h-589l-164 -426h-160zM422 567h479l-239 625zM731 1718h152l-170 -235h-99z" />
<glyph unicode="&#xc2;" horiz-adv-x="1325" d="M735 1366l543 -1366h-158l-164 426h-589l-164 -426h-160l545 1366h147zM422 567h479l-239 625zM705 1731l163 -248h-114l-92 145l-93 -145h-114l163 248h87z" />
<glyph unicode="&#xc3;" horiz-adv-x="1325" d="M948 1526q-53 -66 -114.5 -73t-117.5 23l-112 59q-55 30 -116.5 22.5t-114.5 -72.5v117q53 66 114.5 71.5t116.5 -23.5l112 -60q56 -30 117.5 -23.5t114.5 71.5v-112zM735 1366l543 -1366h-158l-164 426h-589l-164 -426h-160l545 1366h147zM422 567h479l-239 625z" />
<glyph unicode="&#xc4;" horiz-adv-x="1325" d="M428 1483v164h164v-164h-164zM731 1483v164h164v-164h-164zM735 1366l543 -1366h-158l-164 426h-589l-164 -426h-160l545 1366h147zM422 567h479l-239 625z" />
<glyph unicode="&#xc5;" horiz-adv-x="1325" d="M735 1366l543 -1366h-158l-164 426h-589l-164 -426h-160l545 1366h147zM422 567h479l-239 625zM661.5 1759q79.5 0 122.5 -43t43 -125t-43 -125t-122.5 -43t-122.5 43t-43 125t43 125t122.5 43zM662 1493q49 0 70.5 22.5t21.5 76t-21.5 77t-70.5 23.5q-51 0 -72 -23.5 t-21 -77t21 -76t72 -22.5z" />
<glyph unicode="&#xc6;" horiz-adv-x="1939" d="M1126 1225v-471h607v-144h-607v-469h691v-141h-838v428h-506l-252 -428h-170l811 1366h955v-141h-691zM979 575v644h-45l-375 -644h420z" />
<glyph unicode="&#xc7;" horiz-adv-x="1286" d="M774 1247q-260 0 -381 -134t-121 -425t121 -426t381 -135q209 0 400 80v-141q-172 -68 -357 -78l-125 -232h-155l163 232q-575 35 -575 698q0 700 633 700q217 0 416 -77v-142q-187 80 -400 80z" />
<glyph unicode="&#xc8;" horiz-adv-x="1159" d="M596 1718l117 -235h-99l-170 235h152zM326 1227v-471h628v-144h-628v-473h714v-139h-862v1366h862v-139h-714z" />
<glyph unicode="&#xc9;" horiz-adv-x="1159" d="M680 1718h151l-169 -235h-97zM326 1227v-471h628v-144h-628v-473h714v-139h-862v1366h862v-139h-714z" />
<glyph unicode="&#xca;" horiz-adv-x="1159" d="M662 1731l165 -248h-114l-92 145l-95 -145h-114l166 248h84zM326 1227v-471h628v-144h-628v-473h714v-139h-862v1366h862v-139h-714z" />
<glyph unicode="&#xcb;" horiz-adv-x="1159" d="M395 1483v164h162v-164h-162zM698 1483v164h162v-164h-162zM326 1227v-471h628v-144h-628v-473h714v-139h-862v1366h862v-139h-714z" />
<glyph unicode="&#xcc;" horiz-adv-x="501" d="M178 0v1366h148v-1366h-148zM184 1718l117 -235h-98l-170 235h151z" />
<glyph unicode="&#xcd;" horiz-adv-x="501" d="M326 0v1366h-148v-1366h148zM319 1718h152l-170 -235h-98z" />
<glyph unicode="&#xce;" horiz-adv-x="501" d="M326 0v1366h-148v-1366h148zM295 1731l164 -248h-115l-92 145l-92 -145h-115l164 248h86z" />
<glyph unicode="&#xcf;" horiz-adv-x="501" d="M326 0v1366h-148v-1366h148zM18 1483v164h164v-164h-164zM322 1483v164h163v-164h-163z" />
<glyph unicode="&#xd0;" horiz-adv-x="1468" d="M696 1366q641 0 641 -682q0 -684 -641 -684h-428v621h-159v122h159v623h428zM686 139q262 0 383 131t121 414t-121 414t-383 131h-270v-486h350v-122h-350v-482h270z" />
<glyph unicode="&#xd1;" horiz-adv-x="1490" d="M1161 1366h148v-1366h-166l-817 1151v-1151h-148v1366h168l815 -1151v1151zM1032 1526q-53 -66 -114.5 -73t-117.5 23l-113 59q-56 30 -117.5 22.5t-114.5 -72.5v117q53 66 114.5 71.5t117.5 -23.5l113 -60q56 -30 117.5 -23.5t114.5 71.5v-112z" />
<glyph unicode="&#xd2;" d="M125 684q0 700 633 700t633 -700t-633 -700t-633 700zM272 684q0 -291 117 -426t369 -135t368.5 135t116.5 426t-116.5 426t-368.5 135t-369 -135t-117 -426zM713 1718l116 -235h-96l-170 235h150z" />
<glyph unicode="&#xd3;" d="M758 1384q633 0 633 -700t-633 -700t-633 700t633 700zM758 123q252 0 368.5 135t116.5 426t-116.5 426t-368.5 135t-369 -135t-117 -426t117 -426t369 -135zM801 1718h151l-170 -235h-96z" />
<glyph unicode="&#xd4;" d="M758 1384q633 0 633 -700t-633 -700t-633 700t633 700zM758 123q252 0 368.5 135t116.5 426t-116.5 426t-368.5 135t-369 -135t-117 -426t117 -426t369 -135zM801 1731l164 -248h-115l-92 145l-92 -145h-115l164 248h86z" />
<glyph unicode="&#xd5;" d="M758 1384q635 0 635 -700t-635 -700q-633 0 -633 700t633 700zM758 123q254 0 370.5 135t116.5 426t-116.5 426t-370.5 135q-252 0 -369 -135t-117 -426t117 -426t369 -135zM1047 1526q-53 -66 -115 -73t-118 23l-113 59q-56 30 -116.5 22.5t-113.5 -72.5v117 q53 66 113.5 71.5t116.5 -23.5l113 -60q56 -30 117.5 -23.5t115.5 71.5v-112z" />
<glyph unicode="&#xd6;" d="M524 1483v164h164v-164h-164zM827 1483v164h164v-164h-164zM758 1384q633 0 633 -700t-633 -700t-633 700t633 700zM758 123q252 0 368.5 135t116.5 426t-116.5 426t-368.5 135t-369 -135t-117 -426t117 -426t369 -135z" />
<glyph unicode="&#xd7;" horiz-adv-x="985" d="M705 160l-209 276l-207 -276h-131l272 364l-272 365h131l207 -277l209 277h131l-273 -365l273 -364h-131z" />
<glyph unicode="&#xd8;" d="M1415 1366l-160 -188q137 -174 138 -494q0 -702 -635 -702q-254 0 -410 118l-86 -100h-160l158 188q-135 172 -135 496q0 700 633 700q256 0 411 -118l86 100h160zM272 684q0 -252 84 -383l721 856q-115 88 -319 88q-252 0 -369 -135t-117 -426zM1245 684q0 244 -84 381 l-721 -856q115 -88 318 -88q254 0 370.5 135t116.5 428z" />
<glyph unicode="&#xd9;" horiz-adv-x="1476" d="M672 1718l116 -235h-96l-172 235h152zM1141 1366h147v-805q0 -281 -143.5 -429t-411.5 -148t-411.5 148.5t-143.5 428.5v805h148v-813q0 -434 407.5 -434t407.5 434v813z" />
<glyph unicode="&#xda;" horiz-adv-x="1476" d="M795 1718h151l-170 -235h-98zM1141 1366h147v-805q0 -281 -143.5 -429t-411.5 -148t-411.5 148.5t-143.5 428.5v805h148v-813q0 -434 407.5 -434t407.5 434v813z" />
<glyph unicode="&#xdb;" horiz-adv-x="1476" d="M776 1731l164 -248h-115l-92 145l-92 -145h-115l164 248h86zM1141 1366h147v-805q0 -281 -143.5 -429t-411.5 -148t-411.5 148.5t-143.5 428.5v805h148v-813q0 -434 407.5 -434t407.5 434v813z" />
<glyph unicode="&#xdc;" horiz-adv-x="1476" d="M500 1483v164h164v-164h-164zM803 1483v164h164v-164h-164zM1141 1366h147v-805q0 -281 -143.5 -429t-411.5 -148t-411.5 148.5t-143.5 428.5v805h148v-813q0 -434 407.5 -434t407.5 434v813z" />
<glyph unicode="&#xdd;" horiz-adv-x="1224" d="M655 1718h150l-170 -235h-96zM1012 1366h178l-508 -739v-627h-147v627l-510 739h178l405 -596z" />
<glyph unicode="&#xde;" horiz-adv-x="1167" d="M590 1159q227 0 349 -109.5t122 -314.5t-122 -313.5t-349 -108.5h-266v-313h-148v1366h148v-207h266zM569 455q109 0 181.5 23.5t105.5 68.5t45 88t12 100.5t-12 100.5t-45 88t-105.5 68.5t-181.5 23.5h-245v-561h245z" />
<glyph unicode="&#xdf;" horiz-adv-x="1255" d="M889 705q10 -4 27.5 -12.5t61.5 -39t76.5 -66.5t60.5 -94.5t28 -123.5q0 -170 -150.5 -269.5t-384.5 -99.5v133q162 0 274.5 61.5t112.5 188.5q0 129 -120.5 188.5t-266.5 59.5v129q145 0 232.5 62.5t87.5 181.5q0 123 -85 183t-222 60q-141 0 -217 -87t-76 -300v-860 h-148v868q0 113 23.5 203t73 162t136.5 111.5t208 39.5q229 0 341.5 -112.5t112.5 -267.5q0 -51 -19.5 -100.5t-46 -84.5t-54 -61.5t-46.5 -40.5z" />
<glyph unicode="&#xe0;" horiz-adv-x="1093" d="M522 1040q215 0 328 -108.5t113 -315.5v-309q0 -98 -45.5 -167.5t-117 -100.5t-134 -43t-123.5 -12q-47 0 -96.5 6t-112 27.5t-108.5 55t-78.5 96t-32.5 144.5q0 70 25.5 125.5t62.5 90t94 59t101 36t104.5 17.5t86 7t60.5 1l164 -10q0 137 -75.5 195.5t-223.5 58.5 q-166 0 -299 -49v143q151 53 307 53zM815 307v197q-68 12 -182 12q-371 0 -371 -203q0 -193 281 -192q272 0 272 186zM506 1391l117 -236h-97l-170 236h150z" />
<glyph unicode="&#xe1;" horiz-adv-x="1093" d="M522 1040q215 0 328 -108.5t113 -315.5v-309q0 -98 -45.5 -167.5t-117 -100.5t-134 -43t-123.5 -12q-47 0 -96.5 6t-112 27.5t-108.5 55t-78.5 96t-32.5 144.5q0 70 25.5 125.5t62.5 90t94 59t101 36t104.5 17.5t86 7t60.5 1l164 -10q0 137 -75.5 195.5t-223.5 58.5 q-166 0 -299 -49v143q151 53 307 53zM815 307v197q-68 12 -182 12q-371 0 -371 -203q0 -193 281 -192q272 0 272 186zM584 1391h151l-170 -236h-98z" />
<glyph unicode="&#xe2;" horiz-adv-x="1093" d="M522 1040q215 0 328 -108.5t113 -315.5v-309q0 -98 -45.5 -167.5t-117 -100.5t-134 -43t-123.5 -12q-47 0 -96.5 6t-112 27.5t-108.5 55t-78.5 96t-32.5 144.5q0 70 25.5 125.5t62.5 90t94 59t101 36t104.5 17.5t86 7t60.5 1l164 -10q0 137 -75.5 195.5t-223.5 58.5 q-166 0 -299 -49v143q151 53 307 53zM815 307v197q-68 12 -182 12q-371 0 -371 -203q0 -193 281 -192q272 0 272 186zM612 1401l164 -246h-114l-93 143l-92 -143h-115l164 246h86z" />
<glyph unicode="&#xe3;" horiz-adv-x="1093" d="M522 1040q215 0 328 -108.5t113 -315.5v-309q0 -98 -45.5 -167.5t-117 -100.5t-134 -43t-123.5 -12q-47 0 -96.5 6t-112 27.5t-108.5 55t-78.5 96t-32.5 144.5q0 70 25.5 125.5t62.5 90t93 59t101 36t105.5 17.5t85 7t59.5 1l166 -10q0 137 -75.5 195.5t-223.5 58.5 q-150 0 -299 -47v141q141 53 307 53zM815 307v197q-68 12 -182 12q-371 0 -371 -201q0 -195 281 -194q272 0 272 186zM846 1198q-53 -66 -114.5 -73t-118.5 23l-112 59q-56 30 -117.5 23t-115.5 -73v117q53 66 114.5 72t118.5 -24l112 -59q56 -30 118 -24t115 72v-113z" />
<glyph unicode="&#xe4;" horiz-adv-x="1093" d="M336 1155v162h164v-162h-164zM639 1155v162h164v-162h-164zM522 1040q215 0 328 -108.5t113 -315.5v-309q0 -98 -45.5 -167.5t-117 -100.5t-134 -43t-123.5 -12q-47 0 -96.5 6t-112 27.5t-108.5 55t-78.5 96t-32.5 144.5q0 70 25.5 125.5t62.5 90t94 59t101 36 t104.5 17.5t86 7t60.5 1l164 -10q0 137 -75.5 195.5t-223.5 58.5q-166 0 -299 -49v143q151 53 307 53zM815 307v197q-68 12 -182 12q-371 0 -371 -203q0 -193 281 -192q272 0 272 186z" />
<glyph unicode="&#xe5;" horiz-adv-x="1093" d="M522 1040q215 0 328 -108.5t113 -315.5v-309q0 -98 -45.5 -167.5t-117 -100.5t-134 -43t-123.5 -12q-47 0 -96.5 6t-112 27.5t-108.5 55t-78.5 96t-32.5 144.5q0 70 25.5 125.5t62.5 90t94 59t101 36t104.5 17.5t86 7t60.5 1l164 -10q0 137 -75.5 195.5t-223.5 58.5 q-166 0 -299 -49v143q151 53 307 53zM815 307v197q-68 12 -182 12q-371 0 -371 -203q0 -193 281 -192q272 0 272 186zM559 1432q80 0 123 -43t43 -125t-43 -125t-123 -43t-123 43t-43 125t43 125t123 43zM559 1163q49 0 70.5 23.5t21.5 77t-21.5 76t-70.5 22.5 q-51 0 -71.5 -22.5t-20.5 -76t20.5 -77t71.5 -23.5z" />
<glyph unicode="&#xe6;" horiz-adv-x="1824" d="M1255 1040q94 0 171 -29.5t122 -69.5t79 -104.5t48.5 -109.5t22.5 -108.5t8 -78.5v-44l-4 -72h-746q14 -154 94 -223.5t240 -69.5q219 0 350 76v-152q-154 -72 -366 -71q-248 0 -365 151q-104 -152 -370 -151q-47 0 -96.5 6t-112 27.5t-108.5 55t-78.5 96t-32.5 144.5 q0 70 25.5 125.5t62.5 90t93 59t101 36t105.5 17.5t85 7t59.5 1l166 -10q0 137 -76 195.5t-223 58.5q-166 0 -299 -49v143q152 53 305 53q268 0 377 -168q112 168 362 168zM809 307v197q-66 12 -180 12q-371 0 -371 -203q0 -193 281 -192q270 0 270 186zM956 555h598 q0 35 -8 78t-33.5 110.5t-92 112.5t-165.5 45q-150 0 -219.5 -79t-79.5 -267z" />
<glyph unicode="&#xe7;" horiz-adv-x="966" d="M614 899q-182 0 -265 -92t-83 -295q0 -205 83 -296t265 -91q154 0 287 57v-143q-115 -41 -225 -53l-127 -230h-156l164 228q-86 4 -157.5 30.5t-138 83t-104.5 162t-38 252.5q0 156 43 265.5t116.5 163.5t150.5 76.5t169 22.5q154 0 303 -57v-141q-140 57 -287 57z" />
<glyph unicode="&#xe8;" horiz-adv-x="1136" d="M578 1040q94 0 170.5 -29.5t121.5 -69.5t79 -104.5t48.5 -109.5t22.5 -108.5t8 -78.5v-44l-4 -72h-745q14 -154 94 -223.5t237 -69.5q223 0 351 76v-152q-150 -72 -365 -71q-90 0 -165 21.5t-147.5 74.5t-113.5 159.5t-41 258.5v10q-2 532 449 532zM279 555h598 q0 35 -8.5 78t-34 110.5t-92 112.5t-164.5 45q-152 0 -220.5 -79t-78.5 -267zM547 1391l117 -236h-99l-170 236h152z" />
<glyph unicode="&#xe9;" horiz-adv-x="1136" d="M578 1040q94 0 170.5 -29.5t121.5 -69.5t79 -104.5t48.5 -109.5t22.5 -108.5t8 -78.5v-44l-4 -72h-745q14 -154 94 -223.5t237 -69.5q223 0 351 76v-152q-150 -72 -365 -71q-90 0 -165 21.5t-147.5 74.5t-113.5 159.5t-41 258.5v10q-2 532 449 532zM279 555h598 q0 35 -8.5 78t-34 110.5t-92 112.5t-164.5 45q-152 0 -220.5 -79t-78.5 -267zM623 1391h151l-170 -236h-98z" />
<glyph unicode="&#xea;" horiz-adv-x="1136" d="M578 1040q94 0 170.5 -29.5t121.5 -69.5t79 -104.5t48.5 -109.5t22.5 -108.5t8 -78.5v-44l-4 -72h-745q14 -154 94 -223.5t237 -69.5q223 0 351 76v-152q-150 -72 -365 -71q-90 0 -165 21.5t-147.5 74.5t-113.5 159.5t-41 258.5v10q-2 532 449 532zM279 555h598 q0 35 -8.5 78t-34 110.5t-92 112.5t-164.5 45q-152 0 -220.5 -79t-78.5 -267zM621 1401l163 -246h-114l-92 143l-93 -143h-114l164 246h86z" />
<glyph unicode="&#xeb;" horiz-adv-x="1136" d="M578 1040q94 0 170.5 -29.5t121.5 -69.5t79 -104.5t48.5 -109.5t22.5 -108.5t8 -78.5v-44l-4 -72h-745q14 -154 94 -223.5t237 -69.5q223 0 351 76v-152q-150 -72 -365 -71q-90 0 -165 21.5t-147.5 74.5t-113.5 159.5t-41 258.5v10q-2 532 449 532zM279 555h598 q0 35 -8.5 78t-34 110.5t-92 112.5t-164.5 45q-152 0 -220.5 -79t-78.5 -267zM344 1155v162h164v-162h-164zM647 1155v162h164v-162h-164z" />
<glyph unicode="&#xec;" horiz-adv-x="552" d="M203 0v1022h147v-1022h-147zM209 1391l117 -236h-99l-170 236h152z" />
<glyph unicode="&#xed;" horiz-adv-x="552" d="M350 0v1022h-147v-1022h147zM342 1391h152l-170 -236h-97z" />
<glyph unicode="&#xee;" horiz-adv-x="552" d="M350 0v1022h-147v-1022h147zM317 1401l166 -246h-114l-93 143l-94 -143h-114l165 246h84z" />
<glyph unicode="&#xef;" horiz-adv-x="552" d="M350 0v1022h-147v-1022h147zM43 1155v162h162v-162h-162zM346 1155v162h162v-162h-162z" />
<glyph unicode="&#xf0;" horiz-adv-x="1193" d="M852 1223q197 -193 197 -596q0 -643 -465 -643q-123 0 -216.5 41t-145.5 109.5t-77.5 147t-25.5 162.5q0 199 125 314.5t340 115.5q186 0 307 -90q-25 244 -174 365l-230 -129l-55 98l170 94q-86 33 -192 33q-41 0 -111 -8v137q66 10 127 10q184 0 328 -86l190 107 l53 -98zM584 123q43 0 70.5 3t78.5 29.5t83 75t57.5 148.5t27.5 242q-111 117 -317 116q-154 0 -236 -75.5t-82 -215.5q0 -41 9.5 -84t38 -103t98.5 -98t172 -38z" />
<glyph unicode="&#xf1;" horiz-adv-x="1189" d="M600 1040q193 0 299.5 -98t106.5 -276v-666h-148v666q0 43 -9 76.5t-35 71.5t-84 58.5t-146 20.5q-129 0 -269 -41v-852h-147v940q201 100 432 100zM874 1198q-53 -66 -114.5 -73t-117.5 23l-113 59q-56 30 -116.5 23t-113.5 -73v117q53 66 113.5 72t116.5 -24l113 -59 q56 -30 117.5 -24t114.5 72v-113z" />
<glyph unicode="&#xf2;" horiz-adv-x="1155" d="M100 512q0 156 43 265.5t117 163.5t151.5 76.5t170 22.5t169 -22.5t150.5 -76.5t117 -163.5t43 -265.5t-43 -265.5t-117 -163.5t-150.5 -76.5t-169 -22.5t-170 22.5t-151.5 76.5t-117 163.5t-43 265.5zM248 512q0 -207 80 -300t254 -93t252.5 94t78.5 299t-78.5 299 t-252.5 94t-254 -93t-80 -300zM514 1391l117 -236h-99l-170 236h152z" />
<glyph unicode="&#xf3;" horiz-adv-x="1155" d="M581.5 1040q92.5 0 169 -22.5t150.5 -76.5t117 -163.5t43 -265.5t-43 -265.5t-117 -163.5t-150.5 -76.5t-169 -22.5t-170 22.5t-151.5 76.5t-117 163.5t-43 265.5t43 265.5t117 163.5t151.5 76.5t170 22.5zM582 119q174 0 252.5 94t78.5 299t-78.5 299t-252.5 94 t-254 -93t-80 -300t80 -300t254 -93zM647 1391h152l-170 -236h-99z" />
<glyph unicode="&#xf4;" horiz-adv-x="1155" d="M100 512q0 156 43 265.5t117 163.5t151.5 76.5t170 22.5t169 -22.5t150.5 -76.5t117 -163.5t43 -265.5t-43 -265.5t-117 -163.5t-150.5 -76.5t-169 -22.5t-170 22.5t-151.5 76.5t-117 163.5t-43 265.5zM248 512q0 -207 80 -300t254 -93t252.5 94t78.5 299t-78.5 299 t-252.5 94t-254 -93t-80 -300zM623 1401l165 -246h-114l-92 143l-95 -143h-114l166 246h84z" />
<glyph unicode="&#xf5;" horiz-adv-x="1155" d="M100 512q0 156 43 265.5t117 163.5t150.5 76.5t169 22.5t170 -22.5t151.5 -76.5t117 -163.5t43 -265.5t-43 -265.5t-117 -163.5t-151.5 -76.5t-170 -22.5t-169 22.5t-150.5 76.5t-117 163.5t-43 265.5zM248 512q0 -207 79 -300t253 -93t253.5 93t79.5 300t-79.5 300 t-253.5 93t-253 -93t-79 -300zM877 1198q-53 -66 -115 -73t-118 23l-113 59q-56 30 -116.5 24t-113.5 -72v115q53 66 113.5 73t116.5 -23l113 -60q56 -31 117.5 -24t115.5 73v-115z" />
<glyph unicode="&#xf6;" horiz-adv-x="1155" d="M100 512q0 156 43 265.5t117 163.5t151.5 76.5t170 22.5t169 -22.5t150.5 -76.5t117 -163.5t43 -265.5t-43 -265.5t-117 -163.5t-150.5 -76.5t-169 -22.5t-170 22.5t-151.5 76.5t-117 163.5t-43 265.5zM248 512q0 -207 80 -300t254 -93t252.5 94t78.5 299t-78.5 299 t-252.5 94t-254 -93t-80 -300zM348 1155v162h162v-162h-162zM651 1155v162h162v-162h-162z" />
<glyph unicode="&#xf7;" horiz-adv-x="1286" d="M561 735v164h164v-164h-164zM561 152v163h164v-163h-164zM1059 465v123h-832v-123h832z" />
<glyph unicode="&#xf8;" horiz-adv-x="1175" d="M938 1022h160l-125 -150q94 -131 94 -360q0 -156 -43 -265.5t-116.5 -163.5t-150.5 -76.5t-169 -22.5q-182 0 -297 79l-55 -63h-160l127 152q-96 133 -97 360q0 156 43.5 265.5t117 163.5t151.5 76.5t170 22.5q180 0 297 -82zM254 512q0 -158 45 -246l496 586 q-78 53 -207 53q-174 0 -254 -93t-80 -300zM920 512q0 156 -46 246l-493 -588q76 -51 207 -51q174 0 253 93t79 300z" />
<glyph unicode="&#xf9;" horiz-adv-x="1202" d="M877 1022h147v-592q0 -213 -111.5 -329.5t-316.5 -116.5t-316.5 116.5t-111.5 329.5v592h147v-600q0 -156 68 -228.5t213 -72.5q143 0 212 72.5t69 228.5v600zM535 1391l116 -236h-98l-170 236h152z" />
<glyph unicode="&#xfa;" horiz-adv-x="1202" d="M877 1022h147v-592q0 -213 -111.5 -329.5t-316.5 -116.5t-316.5 116.5t-111.5 329.5v592h147v-600q0 -156 68 -228.5t213 -72.5q143 0 212 72.5t69 228.5v600zM657 1391h150l-170 -236h-96z" />
<glyph unicode="&#xfb;" horiz-adv-x="1202" d="M877 1022h147v-592q0 -213 -111.5 -329.5t-316.5 -116.5t-316.5 116.5t-111.5 329.5v592h147v-600q0 -156 68 -228.5t213 -72.5q143 0 212 72.5t69 228.5v600zM637 1401l166 -246h-115l-92 143l-92 -143h-115l164 246h84z" />
<glyph unicode="&#xfc;" horiz-adv-x="1202" d="M877 1022h147v-592q0 -213 -111.5 -329.5t-316.5 -116.5t-316.5 116.5t-111.5 329.5v592h147v-600q0 -156 68 -228.5t213 -72.5q143 0 212 72.5t69 228.5v600zM362 1155v162h164v-162h-164zM666 1155v162h163v-162h-163z" />
<glyph unicode="&#xfd;" horiz-adv-x="1028" d="M807 1022h158l-418 -1122q-109 -295 -320 -295q-51 0 -98 18v135q41 -18 88 -18q63 0 118.5 68.5t80.5 138.5l24 69l-377 1006h158l293 -809zM565 1391h152l-170 -236h-98z" />
<glyph unicode="&#xfe;" horiz-adv-x="1136" d="M569 1026q70 0 131.5 -12.5t125 -47t109.5 -90t74.5 -149.5t28.5 -217q0 -152 -42 -258.5t-114.5 -159.5t-148.5 -74.5t-164 -21.5q-129 0 -252 41v-414h-147v1776h147v-414q123 41 252 41zM569 133q170 0 246 89t76 288t-76 289t-246 90q-135 0 -252 -51v-654 q117 -51 252 -51z" />
<glyph unicode="&#xff;" horiz-adv-x="1028" d="M807 1022h158l-418 -1122q-109 -295 -320 -295q-51 0 -98 18v135q41 -18 88 -18q63 0 118.5 68.5t80.5 138.5l24 69l-377 1006h158l293 -809zM279 1155v162h161v-162h-161zM582 1155v162h161v-162h-161z" />
<glyph unicode="&#x152;" horiz-adv-x="2029" d="M1894 1227h-716v-471h628v-144h-628v-473h716v-139h-864v27q-117 -43 -274 -43q-633 0 -633 700t633 700q160 0 274 -45v27h864v-139zM756 123q170 0 274 59v1004q-109 59 -274 59q-252 0 -369 -135t-117 -426t117 -426t369 -135z" />
<glyph unicode="&#x153;" horiz-adv-x="1921" d="M1356 1040q94 0 170 -29.5t122 -69.5t78.5 -104.5t47 -109.5t22.5 -108.5t8 -78.5v-44l-2 -72h-745q14 -154 94 -223.5t238 -69.5q219 0 350 76v-152q-150 -72 -365 -71q-276 0 -393 190q-119 -190 -399 -190q-92 0 -169 22.5t-151 76.5t-117 163.5t-43 265.5t43 265.5 t117 163.5t150.5 76.5t169.5 22.5q279 0 397 -186q113 186 377 186zM582 119q174 0 253.5 93t79.5 300t-79.5 300t-253.5 93t-253 -93t-79 -300t79 -300t253 -93zM1055 555h600q0 33 -8.5 77t-35 111.5t-93 112.5t-162.5 45q-152 0 -221.5 -79t-79.5 -267z" />
<glyph unicode="&#x178;" horiz-adv-x="1224" d="M375 1483v164h164v-164h-164zM678 1483v164h164v-164h-164zM1012 1366h178l-508 -739v-627h-147v627l-510 739h178l405 -596z" />
<glyph unicode="&#x2c6;" horiz-adv-x="823" d="M457 1401l164 -246h-115l-92 143l-92 -143h-115l166 246h84z" />
<glyph unicode="&#x2dc;" horiz-adv-x="1038" d="M791 1198q-53 -66 -115 -73t-118 23l-113 59q-56 30 -116.5 23t-113.5 -73v117q53 66 113.5 72t116.5 -24l113 -59q56 -30 117.5 -24t115.5 72v-113z" />
<glyph unicode="&#x2000;" horiz-adv-x="878" />
<glyph unicode="&#x2001;" horiz-adv-x="1759" />
<glyph unicode="&#x2002;" horiz-adv-x="878" />
<glyph unicode="&#x2003;" horiz-adv-x="1759" />
<glyph unicode="&#x2004;" horiz-adv-x="585" />
<glyph unicode="&#x2005;" horiz-adv-x="438" />
<glyph unicode="&#x2006;" horiz-adv-x="292" />
<glyph unicode="&#x2007;" horiz-adv-x="292" />
<glyph unicode="&#x2008;" horiz-adv-x="219" />
<glyph unicode="&#x2009;" horiz-adv-x="350" />
<glyph unicode="&#x200a;" horiz-adv-x="96" />
<glyph unicode="&#x2010;" horiz-adv-x="950" d="M786 682v-143h-624v143h624z" />
<glyph unicode="&#x2011;" horiz-adv-x="950" d="M786 682v-143h-624v143h624z" />
<glyph unicode="&#x2012;" horiz-adv-x="950" d="M786 682v-143h-624v143h624z" />
<glyph unicode="&#x2013;" horiz-adv-x="1146" d="M1001 655v-127h-860v127h860z" />
<glyph unicode="&#x2014;" horiz-adv-x="1824" d="M1663 664v-136h-1501v136h1501z" />
<glyph unicode="&#x2018;" horiz-adv-x="522" d="M264 1384l152 -401h-148l-172 401h168z" />
<glyph unicode="&#x2019;" horiz-adv-x="522" d="M248 1384h168l-172 -401h-148z" />
<glyph unicode="&#x201a;" horiz-adv-x="614" d="M299 172h166l-170 -401h-148z" />
<glyph unicode="&#x201c;" horiz-adv-x="800" d="M543 1384l151 -401h-147l-172 401h168zM264 1384l152 -401h-148l-172 401h168z" />
<glyph unicode="&#x201d;" horiz-adv-x="792" d="M248 1384h168l-172 -401h-148zM526 1384h168l-172 -401h-147z" />
<glyph unicode="&#x201e;" horiz-adv-x="892" d="M299 172h166l-170 -401h-148zM578 172h167l-172 -401h-147z" />
<glyph unicode="&#x2022;" horiz-adv-x="849" d="M657 684q0 -98 -69.5 -168t-165.5 -70q-98 0 -168 70t-70 168t70 167t168 69q96 0 165.5 -69t69.5 -167z" />
<glyph unicode="&#x2026;" horiz-adv-x="1576" d="M219 0v164h164v-164h-164zM1200 0v164h162v-164h-162zM711 0v164h161v-164h-161z" />
<glyph unicode="&#x202f;" horiz-adv-x="350" />
<glyph unicode="&#x2039;" horiz-adv-x="710" d="M608 911l-364 -389l364 -391h-198l-347 391l347 389h198z" />
<glyph unicode="&#x203a;" horiz-adv-x="776" d="M137 911h197l348 -389l-348 -391h-197l363 391z" />
<glyph unicode="&#x205f;" horiz-adv-x="438" />
<glyph unicode="&#x20ac;" horiz-adv-x="1390" d="M883 1245q-207 0 -325 -84t-157 -260h658v-123h-674q-4 -61 -4 -94q0 -37 4 -94h674v-123h-658q39 -176 157 -260t325 -84q209 0 399 80v-142q-203 -78 -416 -77q-524 0 -614 483h-150v123h136q-4 61 -4.5 94t4.5 94h-136v123h150q90 483 614 483q215 0 416 -79v-142 q-194 82 -399 82z" />
<glyph unicode="&#x2122;" horiz-adv-x="1550" d="M100 1366h557v-72h-241v-610h-74v610h-242v72zM1313 1366h80v-682h-74v561l-242 -348l-241 348v-561h-74v682h80l235 -346z" />
<glyph unicode="&#xe000;" horiz-adv-x="1020" d="M0 1020h1020v-1020h-1020v1020z" />
<glyph unicode="&#xfb01;" horiz-adv-x="1202" d="M1040 0v1022h-147v-1022h147zM1049 1366v-162h-164v162h164zM616 1317q-39 0 -59 -2t-54 -14.5t-52.5 -35t-33 -70.5t-14.5 -116v-55h287v-137h-287v-887h-143v887h-176v137h176v53q0 106 28.5 182t63.5 112t89.5 56.5t82 22.5t66.5 2q53 0 100 -10v-133q-41 8 -74 8z " />
<glyph unicode="&#xfb02;" horiz-adv-x="1220" d="M1040 0v1411h-147v-1411h147zM616 1317q-39 0 -59 -2t-54 -14.5t-52.5 -35t-33 -70.5t-14.5 -116v-55h287v-137h-287v-887h-143v887h-176v137h176v53q0 106 28.5 182t63.5 112t89.5 56.5t82 22.5t66.5 2q53 0 100 -10v-133q-41 8 -74 8z" />
<glyph unicode="&#xfb03;" horiz-adv-x="1892" d="M1700 0v1022h-147v-1022h147zM1708 1366v-162h-163v162h163zM1288 1317q-49 0 -74.5 -4t-61.5 -24.5t-53 -73t-17 -136.5v-57h280v-135h-280v-887h-148v887h-176v135h176v55q0 106 27.5 182t62.5 112t89.5 56.5t83 22.5t67.5 2q55 0 98 -12v-131q-41 8 -74 8zM612 1317 q-49 0 -74.5 -4t-61.5 -24.5t-53 -73t-17 -136.5v-57h280v-135h-280v-887h-148v887h-176v135h176v55q0 106 27.5 182t62.5 112t89.5 56.5t83 22.5t67.5 2q55 0 98 -12v-131q-41 8 -74 8z" />
<glyph unicode="&#xfb04;" horiz-adv-x="1904" d="M1706 0h-147v1411h147v-1411zM1288 1317q-49 0 -74.5 -4t-61.5 -24.5t-53 -73t-17 -136.5v-57h280v-135h-280v-887h-148v887h-176v135h176v55q0 106 27.5 182t62.5 112t89.5 56.5t83 22.5t67.5 2q55 0 98 -12v-131q-41 8 -74 8zM612 1317q-49 0 -74.5 -4t-61.5 -24.5 t-53 -73t-17 -136.5v-57h280v-135h-280v-887h-148v887h-176v135h176v55q0 106 27.5 182t62.5 112t89.5 56.5t83 22.5t67.5 2q55 0 98 -12v-131q-41 8 -74 8z" />
</font>
</defs>
</svg>
